<svg
  xmlns="http://www.w3.org/2000/svg"
  width="24"
  height="24"
  viewBox="0 0 24 24"
  fill="none"
  stroke="currentColor"
  stroke-width="2"
  stroke-linecap="round"
  stroke-linejoin="round"
>
  <path d="M10 19.655A6 6 0 0 1 6 14v-3a4 4 0 0 1 4-4h4a4 4 0 0 1 4 3.97" />
  <path d="M14 15.003a1 1 0 0 1 1.517-.859l4.997 2.997a1 1 0 0 1 0 1.718l-4.997 2.997a1 1 0 0 1-1.517-.86zm.12-11.123L16 2m4.97 3c0 2.1-1.6 3.8-3.5 4M3 21c0-2.1 1.7-3.9 3.8-4M6 13H2m4.53-4C4.6 8.8 3 7.1 3 5m5-3 1.88 1.88M9 7.13v-1a3 3 0 0 1 4.18-2.895 3 3 0 0 1 1.821 2.896v1" />
</svg>
