<svg
  xmlns="http://www.w3.org/2000/svg"
  width="24"
  height="24"
  viewBox="0 0 24 24"
  fill="none"
  stroke="currentColor"
  stroke-width="2"
  stroke-linecap="round"
  stroke-linejoin="round"
>
  <path d="M10.3 20H4a2 2 0 0 1-2-2V5a2 2 0 0 1 2-2h3.98a2 2 0 0 1 1.69.9l.66 1.2A2 2 0 0 0 12 6h8a2 2 0 0 1 2 2v3.3m-7.695 8.23.923-.382m0-2.296-.923-.383m2.547-1.241-.383-.923m.383 6.467-.383.924m2.679-6.468.383-.923m-.001 7.391-.382-.924m1.624-3.92.924-.383m-.924 2.679.924.383" />
  <path d="M15 18a3 3 0 1 0 6 0 3 3 0 1 0-6 0" />
</svg>
