<svg
  xmlns="http://www.w3.org/2000/svg"
  width="24"
  height="24"
  viewBox="0 0 24 24"
  fill="none"
  stroke="currentColor"
  stroke-width="2"
  stroke-linecap="round"
  stroke-linejoin="round"
>
  <path d="M4 3h3a1 1 0 0 1 1 1v3a1 1 0 0 1-1 1H4a1 1 0 0 1-1-1V4a1 1 0 0 1 1-1m13 0h3a1 1 0 0 1 1 1v3a1 1 0 0 1-1 1h-3a1 1 0 0 1-1-1V4a1 1 0 0 1 1-1M4 16h3a1 1 0 0 1 1 1v3a1 1 0 0 1-1 1H4a1 1 0 0 1-1-1v-3a1 1 0 0 1 1-1m17 0h-3a2 2 0 0 0-2 2v3m5 0v.01M12 7v3a2 2 0 0 1-2 2H7m-4 0h.01M12 3h.01M12 16v.01M16 12h1m4 0v.01M12 21v-1" />
</svg>
