<svg
  xmlns="http://www.w3.org/2000/svg"
  width="24"
  height="24"
  viewBox="0 0 24 24"
  fill="none"
  stroke="currentColor"
  stroke-width="2"
  stroke-linecap="round"
  stroke-linejoin="round"
>
  <path d="M14.5 2A1.5 1.5 0 0 1 16 3.5v5a1.5 1.5 0 0 1-1.5 1.5h0A1.5 1.5 0 0 1 13 8.5v-5A1.5 1.5 0 0 1 14.5 2M19 8.5V10h1.5A1.5 1.5 0 1 0 19 8.5M9.5 14a1.5 1.5 0 0 1 1.5 1.5v5A1.5 1.5 0 0 1 9.5 22h0A1.5 1.5 0 0 1 8 20.5v-5A1.5 1.5 0 0 1 9.5 14M5 15.5V14H3.5A1.5 1.5 0 1 0 5 15.5M15.5 13h5a1.5 1.5 0 0 1 1.5 1.5v0a1.5 1.5 0 0 1-1.5 1.5h-5a1.5 1.5 0 0 1-1.5-1.5v0a1.5 1.5 0 0 1 1.5-1.5m0 6H14v1.5a1.5 1.5 0 1 0 1.5-1.5M3.5 8h5A1.5 1.5 0 0 1 10 9.5v0A1.5 1.5 0 0 1 8.5 11h-5A1.5 1.5 0 0 1 2 9.5v0A1.5 1.5 0 0 1 3.5 8m5-3H10V3.5A1.5 1.5 0 1 0 8.5 5" />
</svg>
