<svg
  xmlns="http://www.w3.org/2000/svg"
  width="24"
  height="24"
  viewBox="0 0 24 24"
  fill="none"
  stroke="currentColor"
  stroke-width="2"
  stroke-linecap="round"
  stroke-linejoin="round"
>
  <path d="m14.305 19.53.923-.382m0-2.296-.923-.383m2.547-1.241-.383-.923m.383 6.467-.383.924m2.679-6.468.383-.923m-.001 7.391-.382-.924M2 21a8 8 0 0 1 10.434-7.62m8.338 3.472.924-.383m-.924 2.679.924.383" />
  <path d="M5 8a5 5 0 1 0 10 0A5 5 0 1 0 5 8m10 10a3 3 0 1 0 6 0 3 3 0 1 0-6 0" />
</svg>
