<svg
  xmlns="http://www.w3.org/2000/svg"
  width="24"
  height="24"
  viewBox="0 0 24 24"
  fill="none"
  stroke="currentColor"
  stroke-width="2"
  stroke-linecap="round"
  stroke-linejoin="round"
>
  <path d="M5 3h14a2 2 0 0 1 2 2v14a2 2 0 0 1-2 2H5a2 2 0 0 1-2-2V5a2 2 0 0 1 2-2" />
  <path d="M7 7.5a.5.5 0 1 0 1 0 .5.5 0 1 0-1 0m.9.4 2.7 2.7M16 7.5a.5.5 0 1 0 1 0 .5.5 0 1 0-1 0m-2.6 3.1 2.7-2.7M7 16.5a.5.5 0 1 0 1 0 .5.5 0 1 0-1 0m.9-.4 2.7-2.7m5.4 3.1a.5.5 0 1 0 1 0 .5.5 0 1 0-1 0m-2.6-3.1 2.7 2.7M10 12a2 2 0 1 0 4 0 2 2 0 1 0-4 0" />
</svg>
